<svg id="Capa_1" data-name="Capa 1" xmlns="http://www.w3.org/2000/svg" viewBox="0 0 376.5 245.9"><path d="M132.5,103.1c-14,11.7-28.1,12.4-34.7,9.9,0,24.8,17.4,32.2,37.2,32.2s29.7-12.4,59.5-42.1,37.1-42.2,64.4-42.2,62,19.9,62,59.6c0,59.5-54.5,77.4-89.3,57l-29.7,32.2c9.1,5.8,33.2,17.4,57,17.4,57,0,104.1-47.1,104.1-106.6S320.9,18.8,258.9,18.8,177.1,65.9,132.5,103.1Z" style="fill:none;stroke:#7b184e;stroke-linecap:round;stroke-linejoin:round;stroke-width:5px"/><path d="M244.3,142.8c14-11.7,28.1-12.4,34.7-10,0-24.7-17.4-32.2-37.2-32.2S212,113,182.2,142.8s-37.2,42.1-64.5,42.1-62-19.8-62-59.5c0-59.5,52-77,89.3-57l29.8-32.3c-9.1-5.7-33.3-17.3-57.1-17.3C60.6,18.8,13.5,65.9,13.5,125.4S55.7,227.1,117.7,227.1,199.6,180,244.3,142.8Z" style="fill:none;stroke:#7b184e;stroke-linecap:round;stroke-linejoin:round;stroke-width:5px"/></svg>